<?xml version="1.0" encoding="utf-8"?>
<!-- Generator: Adobe Illustrator 16.0.0, SVG Export Plug-In . SVG Version: 6.00 Build 0)  -->
<!DOCTYPE svg PUBLIC "-//W3C//DTD SVG 1.1//EN" "http://www.w3.org/Graphics/SVG/1.1/DTD/svg11.dtd">
<svg version="1.1" xmlns="http://www.w3.org/2000/svg" xmlns:xlink="http://www.w3.org/1999/xlink" x="0px" y="0px"
	 width="1040.085px" height="215px" viewBox="0 0 1040.085 215" enable-background="new 0 0 1040.085 215" xml:space="preserve">
<g id="Layer_2" display="none">
	<rect x="-280" y="-343" display="inline" width="1600" height="900"/>
</g>
<g id="Layer_1">
	<g>
		<g>
			<path fill="#37BFA5" d="M0.232,16.155C0.232,7.146,7.77,0,16.779,0h138.313C164.1,0,171,6.773,171,15.783v138.312
				c0,9.01-6.9,15.905-15.909,15.905H16.779C7.77,170,0,163.104,0,154.095V16 M10,15v138.401c0,3.002,3.183,5.599,6.185,5.599
				h138.213c3.002,0,5.602-2.597,5.602-5.599V15.189C160,12.187,157.4,9,154.398,9H16.185c-3.002,0-5.811,2.716-5.811,5.718"/>
			<path fill="#37BFA5" d="M216,198.688c0,9.009-7.303,16.312-16.312,16.312H62.312C53.303,215,46,207.697,46,198.688V61.312
				C46,52.303,53.303,45,62.312,45h137.376C208.697,45,216,52.303,216,61.312V198.688z M205,60.438c0-3.004-2.435-5.438-5.438-5.438
				H61.438C58.435,55,56,57.434,56,60.438v138.125c0,3.003,2.435,5.438,5.438,5.438h138.125c3.003,0,5.438-2.435,5.438-5.438V60.438
				z"/>
			<path fill="#BFD5E2" d="M130.504,156.834c-2.608,0-4.84-0.884-6.687-2.652c-5.82-5.578,0.279-15.361,10.384-31.569
				c0.812-1.302,1.722-2.765,2.67-4.304c-2.09,2.516-4.136,5.024-5.935,7.229c-16.982,20.821-23.005,27.426-29.283,25.908
				c-2.009-0.484-3.586-1.871-4.328-3.802c-1.769-4.605,0.915-10.351,18.643-36.551c-29.73,35.734-37.086,43.191-42.494,43.569
				c-1.748,0.118-3.396-0.438-4.651-1.579c-4.537-4.125-1.177-11.21,4.066-20.771c4.218-7.69,10.118-17.288,16.364-27.45
				c5.644-9.182,13.111-21.332,17.926-30.229c-1.125,1.254-2.385,2.717-3.79,4.424c-5.895,7.16-12.557,16.363-18.436,24.484
				c-14.503,20.04-18.346,24.789-22.783,25.41c-1.693,0.235-3.339-0.201-4.648-1.232c-5.709-4.486-1.22-12.723,0.938-16.68
				c2.801-5.142,6.944-11.359,11.329-17.942c5.082-7.628,13.169-19.771,14.954-25.265c-4.235,0.846-10.779,8.012-14.375,13.959
				c-1.555,2.57-4.897,3.395-7.467,1.84c-2.569-1.554-3.393-4.896-1.839-7.466c1.543-2.55,15.487-24.728,30.103-18.086
				c2.197,0.999,3.775,2.837,4.444,5.173c0.756,2.646,0.308,5.768-1.171,9.572c8.099-9.945,14.381-15.747,19.651-16.447
				c2.312-0.309,4.543,0.294,6.277,1.693c5.259,4.251,1.442,12.396-4.096,22.604c-4.621,8.52-11.296,19.379-17.751,29.88
				c-2.999,4.883-6.384,10.39-9.546,15.678c7.183-8.292,15.243-18,21.728-25.813c28.956-34.883,34.46-40.63,39.259-40.995
				c1.649-0.125,3.225,0.398,4.433,1.475c4.586,4.076,1.091,10.238-4.993,19.955c-4.5,7.188-10.694,16.232-17.25,25.806
				c-0.434,0.633-0.877,1.282-1.33,1.943c9.874-11.704,14.686-16.019,19.391-15.808c2.144,0.091,4.068,1.16,5.278,2.936
				c4.136,6.064-1.289,15.359-12.058,32.633c-3.157,5.064-7.497,12.027-9.658,16.529c2.941-1.498,7.053-4.42,10.394-7.538
				c2.194-2.048,5.636-1.933,7.684,0.261c2.05,2.191,1.936,5.63-0.254,7.682c-0.167,0.156-4.149,3.869-8.908,6.963
				C138.004,155.308,133.931,156.834,130.504,156.834z"/>
		</g>
		<g>
			<path fill="#37BFA5" d="M300.802,66.271c0.939,5.246,2.169,10.832,3.685,16.76s3.185,11.962,5.015,18.099
				c1.828,6.138,3.768,12.198,5.819,18.183c2.051,5.986,4.132,11.604,6.238,16.854c1.791-3.984,3.685-8.833,5.687-14.547
				c2.002-5.714,4.001-11.742,6.004-18.086c2.002-6.341,3.869-12.746,5.605-19.21c1.737-6.464,3.183-12.48,4.341-18.052h10.082
				c-3.788,15.985-7.92,30.584-12.396,43.795c-4.477,13.213-9.403,25.742-14.775,37.591h-9.487
				c-1.591-3.707-3.259-7.842-5.003-12.402c-1.747-4.56-3.544-9.437-5.394-14.627s-3.64-10.641-5.37-16.354
				c-1.731-5.714-3.382-11.561-4.954-17.537c-1.569,5.992-3.215,11.851-4.939,17.576c-1.724,5.729-3.507,11.189-5.347,16.382
				c-1.842,5.194-3.631,10.072-5.367,14.638c-1.736,4.564-3.387,8.673-4.954,12.325h-9.839
				c-5.382-11.851-10.301-24.39-14.758-37.613c-4.459-13.224-8.57-27.813-12.333-43.772h10.862
				c1.159,5.562,2.607,11.568,4.346,18.02c1.739,6.452,3.611,12.852,5.613,19.197c2.002,6.347,4.029,12.355,6.08,18.027
				s3.973,10.503,5.763,14.492c2.009-5.225,4.024-10.832,6.043-16.824c2.017-5.991,3.913-12.032,5.689-18.123
				c1.773-6.09,3.444-12.099,5.008-18.031c1.564-5.933,2.972-11.519,4.216-16.758H300.802z"/>
			<path fill="#37BFA5" d="M439.701,107.043c0,6.402-0.92,12.227-2.755,17.474c-1.837,5.249-4.408,9.708-7.714,13.381
				c-3.306,3.675-7.216,6.532-11.728,8.579c-4.514,2.047-9.499,3.069-14.955,3.069c-5.458,0-10.444-1.022-14.955-3.069
				c-4.513-2.047-8.422-4.904-11.728-8.579c-3.306-3.673-5.879-8.132-7.713-13.381c-1.837-5.247-2.755-11.071-2.755-17.474
				c0-6.4,0.917-12.225,2.755-17.473c1.834-5.247,4.408-9.733,7.713-13.46c3.306-3.724,7.214-6.611,11.728-8.658
				c4.511-2.046,9.497-3.069,14.955-3.069c5.456,0,10.441,1.023,14.955,3.069c4.511,2.047,8.422,4.935,11.728,8.658
				c3.306,3.727,5.876,8.213,7.714,13.46C438.781,94.818,439.701,100.643,439.701,107.043z M428.839,107.043
				c0-10.178-2.361-18.285-7.083-24.32c-4.723-6.034-11.125-9.053-19.205-9.053c-8.083,0-14.483,3.019-19.205,9.053
				c-4.723,6.035-7.084,14.143-7.084,24.32c0,10.181,2.361,18.261,7.084,24.242c4.722,5.982,11.123,8.974,19.205,8.974
				c8.08,0,14.482-2.991,19.205-8.974C426.478,125.304,428.839,117.224,428.839,107.043z"/>
			<path fill="#37BFA5" d="M489.601,64.697c3.357,0,6.533,0.264,9.524,0.787c2.99,0.526,5.062,1.051,6.218,1.574l-2.047,8.815
				c-0.841-0.418-2.546-0.866-5.116-1.338c-2.572-0.472-5.957-0.708-10.153-0.708c-4.408,0-7.95,0.314-10.625,0.944
				c-2.676,0.63-4.435,1.155-5.274,1.574v71.311h-10.232V70.05c2.622-1.153,6.243-2.335,10.862-3.542
				C477.374,65.303,482.989,64.697,489.601,64.697z"/>
			<path fill="#37BFA5" d="M541.232,103.344c3.709,2.612,7.455,5.628,11.234,9.049c3.777,3.424,7.504,7.131,11.176,11.123
				c3.67,3.992,7.131,8.088,10.378,12.288c3.247,4.201,6.011,8.151,8.299,11.854h-12.296c-2.465-4.137-5.322-8.193-8.574-12.173
				c-3.252-3.978-6.666-7.724-10.237-11.236c-3.571-3.512-7.146-6.717-10.717-9.609s-6.737-5.066-9.495-6.518v39.536h-10.231V27.389
				L531,25.5v75.826c2.189-1.873,4.918-4.432,8.184-7.671c3.268-3.237,6.598-6.496,9.986-9.772c3.39-3.276,6.59-6.449,9.604-9.521
				c3.01-3.072,5.539-5.768,7.58-8.09h12.502c-2.41,2.523-5.175,5.32-8.293,8.393c-3.119,3.074-6.369,6.277-9.75,9.609
				c-3.383,3.334-6.713,6.615-9.989,9.844C547.547,97.348,544.35,100.422,541.232,103.344z"/>
			<path fill="#37BFA5" d="M615.377,140.416c5.875,0,10.729-0.969,14.561-2.912c3.83-1.94,5.746-5.22,5.746-9.839
				c0-2.204-0.342-4.093-1.023-5.667c-0.684-1.574-1.811-2.991-3.385-4.25c-1.574-1.26-3.647-2.465-6.218-3.621
				c-2.573-1.153-5.746-2.519-9.524-4.093c-3.045-1.259-5.93-2.544-8.658-3.856c-2.729-1.312-5.143-2.834-7.24-4.565
				c-2.102-1.731-3.778-3.803-5.037-6.218c-1.26-2.413-1.89-5.353-1.89-8.816c0-6.611,2.491-11.963,7.478-16.057
				c4.982-4.092,11.831-6.139,20.543-6.139c5.562,0,10.153,0.473,13.773,1.416c3.621,0.945,6.164,1.786,7.635,2.52l-2.361,9.13
				c-1.259-0.63-3.384-1.468-6.375-2.519c-2.99-1.048-7.373-1.574-13.145-1.574c-2.309,0-4.486,0.238-6.533,0.711
				c-2.046,0.473-3.855,1.21-5.43,2.209c-1.574,0.998-2.834,2.26-3.779,3.785c-0.943,1.525-1.416,3.39-1.416,5.598
				c0,2.209,0.418,4.104,1.26,5.68c0.838,1.58,2.07,2.972,3.699,4.182c1.625,1.211,3.62,2.337,5.981,3.38
				c2.361,1.045,5.062,2.194,8.107,3.448c3.147,1.254,6.163,2.533,9.052,3.84c2.885,1.306,5.431,2.877,7.635,4.713
				c2.203,1.837,3.986,4.041,5.352,6.611c1.363,2.572,2.047,5.8,2.047,9.682c0,7.347-2.756,12.908-8.265,16.686
				c-5.51,3.778-13.041,5.667-22.589,5.667c-7.139,0-12.594-0.604-16.372-1.81c-3.778-1.206-6.297-2.126-7.556-2.755l2.676-9.288
				c0.314,0.212,0.996,0.551,2.047,1.023c1.047,0.472,2.464,0.998,4.25,1.574c1.783,0.578,3.908,1.077,6.375,1.495
				C609.262,140.207,612.122,140.416,615.377,140.416z"/>
			<path fill="#37BFA5" d="M676.297,176.779h-10.232V69.105c3.043-1.048,6.927-2.047,11.649-2.991
				c4.722-0.944,10.704-1.417,17.945-1.417c5.981,0,11.413,0.972,16.293,2.912c4.88,1.943,9.076,4.75,12.594,8.422
				c3.515,3.676,6.242,8.135,8.186,13.381c1.94,5.249,2.912,11.177,2.912,17.789c0,6.193-0.814,11.885-2.44,17.08
				c-1.628,5.194-4.014,9.656-7.162,13.38c-3.148,3.727-7.005,6.639-11.57,8.736c-4.565,2.099-9.787,3.148-15.663,3.148
				c-5.353,0-9.996-0.762-13.932-2.282s-6.796-2.964-8.579-4.329V176.779z M676.297,133.018c0.944,0.735,2.125,1.522,3.542,2.36
				c1.416,0.842,3.069,1.629,4.958,2.362c1.89,0.735,3.936,1.338,6.14,1.81c2.204,0.473,4.511,0.709,6.927,0.709
				c5.037,0,9.261-0.866,12.672-2.598c3.409-1.731,6.164-4.093,8.265-7.084c2.098-2.991,3.62-6.506,4.565-10.547
				c0.944-4.039,1.416-8.316,1.416-12.829c0-10.705-2.676-18.916-8.028-24.637c-5.352-5.719-12.436-8.579-21.251-8.579
				c-5.038,0-9.105,0.235-12.2,0.708c-3.097,0.473-5.431,0.972-7.005,1.496V133.018z"/>
			<path fill="#37BFA5" d="M782.553,64.383c5.353,0,9.891,0.762,13.616,2.282c3.725,1.522,6.742,3.62,9.052,6.297
				c2.308,2.677,3.987,5.852,5.037,9.524c1.048,3.674,1.574,7.661,1.574,11.963v51.319c-1.05,0.314-2.572,0.656-4.564,1.022
				c-1.995,0.369-4.305,0.763-6.927,1.181c-2.624,0.419-5.537,0.761-8.736,1.023c-3.203,0.261-6.481,0.394-9.839,0.394
				c-4.305,0-8.265-0.472-11.886-1.417c-3.62-0.944-6.769-2.439-9.444-4.486c-2.677-2.046-4.777-4.668-6.297-7.871
				c-1.522-3.2-2.283-7.108-2.283-11.728c0-4.407,0.839-8.186,2.52-11.334c1.677-3.148,4.038-5.746,7.083-7.792
				c3.043-2.046,6.664-3.542,10.862-4.487c4.196-0.943,8.762-1.416,13.695-1.416c1.469,0,3.016,0.078,4.644,0.236
				c1.626,0.157,3.2,0.369,4.723,0.629c1.521,0.264,2.834,0.527,3.936,0.787c1.103,0.264,1.862,0.5,2.283,0.709v-5.037
				c0-2.834-0.212-5.589-0.63-8.265c-0.421-2.677-1.338-5.089-2.755-7.241c-1.417-2.15-3.412-3.882-5.982-5.195
				c-2.572-1.311-5.957-1.967-10.153-1.967c-5.981,0-10.443,0.42-13.38,1.259c-2.939,0.841-5.092,1.522-6.455,2.046l-1.416-8.973
				c1.783-0.838,4.538-1.625,8.265-2.361C772.817,64.752,777.304,64.383,782.553,64.383z M783.497,140.259
				c3.987,0,7.478-0.131,10.469-0.394c2.99-0.261,5.534-0.603,7.635-1.023v-28.65c-1.156-0.523-2.991-1.074-5.51-1.652
				c-2.519-0.576-5.982-0.866-10.39-0.866c-2.519,0-5.144,0.185-7.871,0.551c-2.73,0.369-5.249,1.156-7.557,2.361
				c-2.31,1.208-4.198,2.86-5.667,4.959c-1.471,2.101-2.203,4.88-2.203,8.343c0,3.045,0.496,5.615,1.495,7.714
				c0.996,2.101,2.413,3.777,4.25,5.037c1.835,1.26,4.039,2.18,6.612,2.755C777.331,139.971,780.243,140.259,783.497,140.259z"/>
			<path fill="#37BFA5" d="M871.649,149.389c-6.297,0-11.86-0.998-16.687-2.991c-4.828-1.992-8.843-4.853-12.042-8.579
				c-3.203-3.724-5.643-8.186-7.32-13.381c-1.68-5.194-2.519-10.939-2.519-17.236c0-6.4,0.865-12.225,2.598-17.475
				c1.731-5.246,4.223-9.76,7.477-13.537c3.252-3.778,7.188-6.69,11.807-8.737c4.617-2.046,9.812-3.069,15.585-3.069
				c4.407,0,8.525,0.369,12.357,1.102c3.829,0.736,6.793,1.68,8.894,2.834l-2.676,8.815c-2.101-1.048-4.462-1.89-7.084-2.519
				c-2.624-0.63-6.14-0.945-10.547-0.945c-9.027,0-15.875,2.912-20.543,8.737c-4.671,5.824-7.006,14.089-7.006,24.794
				c0,4.828,0.524,9.263,1.574,13.301c1.048,4.042,2.755,7.505,5.116,10.391c2.361,2.887,5.404,5.143,9.131,6.769
				c3.724,1.628,8.265,2.44,13.616,2.44c4.408,0,8.107-0.497,11.099-1.496c2.99-0.996,5.167-1.861,6.532-2.598l2.204,8.815
				c-1.889,1.051-4.855,2.074-8.895,3.07C880.28,148.89,876.058,149.389,871.649,149.389z"/>
			<path fill="#37BFA5" d="M905.494,106.886c0-7.136,1.023-13.354,3.069-18.654c2.047-5.298,4.723-9.733,8.028-13.302
				c3.306-3.566,7.084-6.218,11.334-7.949c4.251-1.732,8.632-2.598,13.145-2.598c9.97,0,17.919,3.254,23.85,9.76
				c5.928,6.508,8.894,16.529,8.894,30.066c0,0.842-0.026,1.681-0.078,2.52c-0.055,0.841-0.133,1.628-0.236,2.361h-57.144
				c0.315,9.971,2.78,17.631,7.399,22.982c4.616,5.353,11.964,8.029,22.038,8.029c5.562,0,9.97-0.524,13.224-1.574
				c3.251-1.048,5.612-1.941,7.084-2.677l1.889,8.815c-1.471,0.842-4.226,1.838-8.265,2.991c-4.041,1.153-8.791,1.731-14.246,1.731
				c-7.138,0-13.224-1.05-18.261-3.148c-5.037-2.098-9.185-5.037-12.437-8.815c-3.254-3.778-5.615-8.265-7.083-13.459
				C906.227,118.771,905.494,113.079,905.494,106.886z M963.267,100.432c-0.212-8.5-2.204-15.112-5.981-19.835
				c-3.778-4.723-9.131-7.083-16.057-7.083c-3.675,0-6.954,0.734-9.839,2.203c-2.888,1.471-5.406,3.438-7.557,5.903
				c-2.152,2.467-3.832,5.327-5.037,8.579c-1.208,3.254-1.916,6.666-2.125,10.232H963.267z"/>
			<path fill="#37BFA5" d="M1024.344,64.697c3.357,0,6.532,0.264,9.523,0.787c2.991,0.526,5.062,1.051,6.218,1.574l-2.046,8.815
				c-0.842-0.418-2.546-0.866-5.116-1.338c-2.573-0.472-5.957-0.708-10.153-0.708c-4.408,0-7.95,0.314-10.626,0.944
				c-2.677,0.63-4.435,1.155-5.273,1.574v71.311h-10.232V70.05c2.622-1.153,6.242-2.335,10.862-3.542
				C1012.116,65.303,1017.731,64.697,1024.344,64.697z"/>
		</g>
	</g>
</g>
</svg>
